<?xml version="1.0" encoding="UTF-8" standalone="no"?>
<svg
   xmlns:dc="http://purl.org/dc/elements/1.1/"
   xmlns:cc="http://creativecommons.org/ns#"
   xmlns:rdf="http://www.w3.org/1999/02/22-rdf-syntax-ns#"
   xmlns:svg="http://www.w3.org/2000/svg"
   xmlns="http://www.w3.org/2000/svg"
   viewBox="0 0 847.56 304.34668"
   height="304.34668"
   width="847.56"
   xml:space="preserve"
   id="svg2"
   version="1.1"><metadata
     id="metadata8"><rdf:RDF><cc:Work
         rdf:about=""><dc:format>image/svg+xml</dc:format><dc:type
           rdf:resource="http://purl.org/dc/dcmitype/StillImage" /></cc:Work></rdf:RDF></metadata><defs
     id="defs6" /><g
     transform="matrix(1.3333333,0,0,-1.3333333,0,304.34667)"
     id="g10"><g
       transform="scale(0.1)"
       id="g12"><path
         id="path14"
         style="fill:#231f20;fill-opacity:1;fill-rule:nonzero;stroke:none"
         d="m 4150.06,0 c 34.48,0 80.3,14.7617 111.05,34.0703 29.23,18.211 52.09,41.5899 67.95,69.4887 l 103.1,197.25 h 853.6 l 99.32,-191.149 c 14.61,-31.2889 39.53,-57.8514 71.94,-76.8006 31.46,-18.5977 63.47,-32.410181 95.14,-32.410181 h 613.64 c 98.55,0 145.94,59.312481 165.7,92.519581 31.74,53.9222 33.5,117.4802 4.96,178.9612 l -1.37,2.941 -1013.11,1906.039 -1.96,3.54 c -15.67,27.22 -38.23,50.21 -67.68,68.72 -31.16,19.33 -63.37,29.13 -95.72,29.13 l -1335.33,-1.67 -2.52,-0.02 c -23.97,-0.51 -106.81,-9.95 -166.7,-110.46 l -490.64,-826.72 -510.6,837.45 c -44.09,73.81 -113.54,100.77 -159.74,101.41 l -2153.809,0.27 c -15.129,0 -76.265,-0.69 -101.304,-2.22 -10.582,-0.65 -22.414,-1.32 -34.59,-2.02 l -8.582,-0.49 c -23.414,-1.33 -51.899,-4.8 -85.485,-20.37 C 69.4961,2240 37.3789,2209.53 19.1992,2173.88 6.64063,2149.25 0,2120.71 0,2091.33 V 180.27 l 0.894531,-7.282 C 11.0938,89.75 73.6094,0.148438 186.746,0.148438 h 587.43 l 3.445,0.191406 C 864.16,5.33203 951.762,68.7695 952.156,180.441 l 6.199,562.149 c 66.255,-0.711 152.545,-1.442 232.185,-1.469 l 5.04,0.109 c 10.47,-0.82 22.99,-13.089 28.57,-19.941 L 1555.61,105.461 C 1597.57,28.2813 1668.85,0.78125 1721.57,0.78125 L 4150.06,0" /><path
         id="path16"
         style="fill:#ffffff;fill-opacity:1;fill-rule:nonzero;stroke:none"
         d="m 5156.62,2162.3 c 9.66,0 20.61,-3.75 32.48,-11.11 12.07,-7.59 21.2,-16.67 26.92,-26.61 L 6227.61,221.422 c 11.95,-25.742 12.08,-47.852 0.47,-67.582 -11.61,-19.52 -31.98,-29.008 -62.28,-29.008 h -613.64 c -9.88,0 -21.33,3.789 -34.07,11.316 -12.32,7.211 -20.65,15.762 -24.76,25.372 l -0.2,0.449 -0.22,0.441 -130.64,251.399 -3.64,7 h -7.89 -983.41 -7.88 l -3.64,-6.977 -131.08,-250.98 c -5.88,-10.34 -14.97,-19.383 -27.06,-26.911 -11.9,-7.48 -23.38,-11.109 -35.06,-11.109 h -553.92 c -30.54,0 -51.85,10.047 -65.13,30.707 -12.95,20.199 -12,42.352 2.96,67.852 l 1086.44,1903.499 0.17,0.29 0.16,0.3 c 4.06,8.06 12.89,15.91 26.22,23.35 17.07,9.47 27.37,11.47 32.99,11.47 h 464.12" /><path
         id="path18"
         style="fill:#ffffff;fill-opacity:1;fill-rule:nonzero;stroke:none"
         d="m 1439.87,2162.63 c 21.01,0 33.18,0 34.36,0 3.8,0 20.69,-0.54 34.26,-0.98 13.42,-0.42 21.8,-0.69 23.63,-0.69 0.02,0 0.04,0 0.06,0 l 56.2,-1.67 c 306.79,-0.46 535.93,-145.97 628.68,-399.22 85.24,-232.75 29.15,-501.78 -133.37,-639.68 -30.79,-26.12 -66.06,-51.01 -111,-78.34 l -11.05,-6.72 6.65,-11.08 2.79,-4.65 477.96,-802.741 c 0.24,-0.418 23.16,-43.089 7.32,-70.05 -10.14,-17.258 -34.9,-26.02 -73.6,-26.02 h -660.38 -0.5 l -0.31,-0.008 c -3.86,0 -38.35,1.18 -60.54,42 l -334.54,621.559 -0.24,0.441 -0.27,0.418 c -2,3.11 -49.82,76.071 -131.48,76.071 h -0.26 l -0.27,-0.008 -3.39,-0.141 c -154.2,0.059 -336.017,2.77 -337.842,2.801 l -13.05,0.187 -0.141,-13.05 -7.391,-669.848 c 0,-55.621 -54.136,-60.641 -61.433,-61.063 H 186.746 c -56.859,0 -65.902,60.543 -66.746,67.442 v 1903.74 c 0,10.36 2.164,20.31 6.094,28.02 6.011,11.78 18.082,22.95 31.523,29.16 14.738,6.83 26.129,8.61 42,9.51 l 4.676,0.27 c 13.75,0.78 27.187,1.55 39.066,2.28 19.907,1.22 75.7,1.99 93.922,1.99 l 148.305,0.01 c 266.742,0.02 812.154,0.06 954.284,0.06" /><path
         id="path20"
         style="fill:#ffffff;fill-opacity:1;fill-rule:nonzero;stroke:none"
         d="m 2016.76,2162.3 c 2.12,0 3.97,0 5.48,0 h 467.2 c 0.33,-0.01 33.7,-1.32 58.61,-43.35 l 603.52,-989.85 11.25,-18.45 11.03,18.58 581.41,979.67 c 30.07,50.46 64.65,51.7 66.03,51.73 h 558.53 c 37.98,0 63.19,-9.11 74.92,-27.06 17.14,-26.23 1.96,-65.4 -0.03,-70.26 L 3381.89,181.82 c -32.34,-57.621 -63.05,-58.281 -64.09,-58.3 l -0.57,0.05 h -0.56 -356.04 c -25.2,0 -49.43,29.231 -56.88,40.821 L 2311.9,1216.17 c 11.93,30.64 60.81,162.87 63.82,280 2.49,95.87 -6.33,169.29 -32.55,270.87 -13.61,52.84 -72.95,173.49 -134.91,242.26 -70.97,78.75 -143.87,126.86 -191.5,153" /><path
         id="path22"
         style="fill:#231f20;fill-opacity:1;fill-rule:nonzero;stroke:none"
         d="m 4608.77,869.379 h 503.31 l -252.62,488.441 z" /><path
         id="path24"
         style="fill:#231f20;fill-opacity:1;fill-rule:nonzero;stroke:none"
         d="M 836.762,1697.92 V 1306.4 h 383.518 c 0,0 326.1,-12.9 326.1,216.7 0,0 2.97,174.82 -299.65,174.82 H 836.762" /></g></g></svg>