<?xml version="1.0" encoding="UTF-8" standalone="no"?>
<svg
   xmlns:dc="http://purl.org/dc/elements/1.1/"
   xmlns:cc="http://creativecommons.org/ns#"
   xmlns:rdf="http://www.w3.org/1999/02/22-rdf-syntax-ns#"
   xmlns:svg="http://www.w3.org/2000/svg"
   xmlns="http://www.w3.org/2000/svg"
   viewBox="0 0 1155.9067 376.20001"
   height="376.20001"
   width="1155.9067"
   xml:space="preserve"
   id="svg2"
   version="1.1"><metadata
     id="metadata8"><rdf:RDF><cc:Work
         rdf:about=""><dc:format>image/svg+xml</dc:format><dc:type
           rdf:resource="http://purl.org/dc/dcmitype/StillImage" /></cc:Work></rdf:RDF></metadata><defs
     id="defs6" /><g
     transform="matrix(1.3333333,0,0,-1.3333333,0,376.2)"
     id="g10"><g
       transform="scale(0.1)"
       id="g12"><path
         id="path14"
         style="fill:#231f20;fill-opacity:1;fill-rule:nonzero;stroke:none"
         d="m 7025.29,1515.58 h 503.3 l -252.61,488.44 z m 946.49,-763.119 c -12.26,0 -25.76,4.309 -40.65,13.098 -14.87,8.711 -24.91,19.242 -30.14,31.492 L 7767.26,1054.02 H 6783.85 L 6650.08,797.051 c -6.97,-12.25 -17.46,-22.781 -31.45,-31.492 -13.99,-8.789 -27.98,-13.098 -41.97,-13.098 h -553.93 c -35,0 -60.31,12.18 -76.07,36.699 -15.68,24.469 -14.84,51.559 2.62,81.301 L 7038.19,2779.54 c 5.29,10.48 15.77,20.07 31.53,28.86 15.68,8.71 28.79,13.1 39.3,13.1 h 464.11 c 12.26,0 25.37,-4.39 39.4,-13.1 13.98,-8.79 24.46,-19.29 31.48,-31.51 L 8658.87,867.852 c 13.9,-29.793 13.9,-56.411 0,-80.024 -14.03,-23.598 -38.46,-35.367 -73.46,-35.367 h -613.63" /><path
         id="path16"
         style="fill:#231f20;fill-opacity:1;fill-rule:nonzero;stroke:none"
         d="m 3636.8,1952.61 h -383.52 v 391.52 h 409.97 c 302.61,0 299.65,-174.82 299.65,-174.82 0,-229.61 -326.1,-216.7 -326.1,-216.7 z M 4876.92,869.391 4396.47,1676.36 c 39.35,23.92 77.08,50.58 112.15,80.32 329.44,279.53 221.83,1059.29 -503.55,1060.38 l -55.49,1.12 h -35.06 c -11.61,0.02 -23.21,0.02 -34.83,0.02 h -49.86 c -21.08,0 -42.17,0 -63.26,-0.02 -24.43,0 -48.86,0 -73.3,-0.04 h -165.13 c -29.53,0.04 -59.09,0.06 -88.63,0.06 -30.54,0.02 -61.06,0.02 -91.59,0.05 -31.15,0 -62.29,0 -93.46,-0.03 -31.24,0 -62.48,-0.02 -93.72,-0.04 -30.68,-0.04 -61.35,-0.09 -92.02,-0.11 h -88.3 c -27.53,0 -55.05,0.02 -82.57,0.07 -24.99,0.06 -49.98,0.11 -74.97,0.17 -21.91,0.05 -43.81,0.1 -65.72,0.1 -18.57,0 -37.11,0 -55.69,-0.1 -15.45,-0.09 -30.91,-0.22 -46.37,-0.42 -13.22,-0.16 -26.46,-0.42 -39.7,-0.68 -17.88,-0.37 -30.65,-3.25 -46.73,-10.71 -15.23,-7.02 -29.98,-20.02 -37.64,-35.04 -5.22,-10.24 -7.51,-22.49 -7.51,-33.92 0,-0.11 0,-1904.481 0,-1904.481 0,0 7.87,-79.7 79.75,-79.7 h 584.32 c 0,0 74.08,3.301 74.08,74.063 l 7.39,669.698 c 0,0 188.1,-2.92 347.67,-2.8 72,-3.45 114.83,-69.94 114.83,-69.94 L 4066.1,802.828 C 4093.83,751.809 4138.9,754 4138.9,754 h 660.38 c 141.96,0 77.64,115.391 77.64,115.391" /><path
         id="path18"
         style="fill:#231f20;fill-opacity:1;fill-rule:nonzero;stroke:none"
         d="m 4713.85,1860.92 c 0,0 62.06,152.02 65.39,281.79 2.42,92.91 -5.81,165.29 -32.14,267.29 -13.29,51.58 -71.57,169.76 -131.98,236.8 -116.48,129.24 -217.95,164.72 -217.95,164.72 0,0 26.63,9.98 41.59,9.98 14.98,0 467.52,0 467.52,0 0,0 40.61,-1.01 69.38,-49.57 l 603.53,-989.86 581.42,979.7 c 34.79,58.38 77.2,58.07 77.2,58.07 h 558.53 c 138.08,0 86.56,-116.1 86.56,-116.1 L 5809.75,821.66 c -38.3,-68.23 -76.57,-64.89 -76.57,-64.89 h -356.03 c -38.3,0 -68.03,47.128 -68.03,47.128 l -594.2,1055.952 -1.07,1.07" /><g
         transform="scale(10)"
         id="g20"><text
           id="text24"
           style="font-variant:normal;font-weight:bold;font-size:65.62709808px;font-family:DIN;-inkscape-font-specification:DIN-Bold;writing-mode:lr-tb;fill:#231f20;fill-opacity:1;fill-rule:nonzero;stroke:none"
           transform="matrix(1,0,0,-1,246.94,13.518)"><tspan
             id="tspan22"
             y="0"
             x="0 36.947296 78.620621 121.86863 164.19725 178.83202 215.71437 254.82819 293.81006 330.6929 345.32767 389.69101 428.80429 471.13342">YOUR TEXT HERE</tspan></text>
<text
           id="text28"
           style="font-variant:normal;font-weight:bold;font-size:33.83349991px;font-family:DIN;-inkscape-font-specification:DIN-Bold;writing-mode:lr-tb;fill:#231f20;fill-opacity:1;fill-rule:nonzero;stroke:none"
           transform="matrix(1,0,0,-1,0,23.25394)"><tspan
             id="tspan26"
             y="0"
             x="0 22.296276 32.615494 56.671112 64.520485 86.782928 108.5717 128.02597 150.32224 158.17162">DIN BOLD &gt;</tspan></text>
</g></g></g></svg>